<?xml version="1.0" encoding="utf-8"?>
<!-- Designed by Vexels.com - 2020 All Rights Reserved - https://vexels.com/terms-and-conditions/  -->
<svg version="1.1" id="Layer_1" xmlns="http://www.w3.org/2000/svg" xmlns:xlink="http://www.w3.org/1999/xlink" x="0px" y="0px"
	 viewBox="0 0 1200 1200" enable-background="new 0 0 1200 1200" xml:space="preserve">
<g>
	<path fill="#C4464D" d="M322.594,389.825c-6.865-5.218-14.677-9.586-23.25-10.836c-9.653-1.407-19.432,1.238-28.582,4.582
		c-6.876,2.514-13.55,5.462-20.052,8.737C112.826,461.737,68.73,649.374,117.26,785.041c16.459,46.012,44.586,89.17,81.113,121.871
		c-0.572-3.029-0.664-6.086,0.056-9.12c1.309-5.578,5.17-10.137,9.201-14.301c0.359-0.395,0.739-0.792,1.119-1.166
		c0.612-0.624,1.245-1.249,1.878-1.873c2.575-2.582,5.212-5.121,7.872-7.598c7.576-7.12,15.49-13.886,23.678-20.276
		c3.651-2.872,7.386-5.662,11.164-8.369c7.85-5.663,15.954-10.991,24.248-15.967c5.218-3.139,10.688-6.498,15.983-10.125
		c-16.642-13.993-31.962-29.423-44.954-46.747c-22.147-29.531-37.308-64.916-38.674-101.624
		c-0.805-21.641,3.146-43.236,9.196-64.052c0.134-0.463,0.283-0.924,0.42-1.388c16.632-56.011,54.416-111.363,111.822-125.126
		c3.212-0.77,6.102-1.704,8.695-2.78C379.342,460.087,349.94,410.607,322.594,389.825z"/>
	<path fill="#F2A661" d="M539.315,107.218c0.739-9.27,2.523-18.761,7.585-26.453c5.382-8.178,13.926-13.514,22.573-17.758
		c29.379-14.42,65.124-18.617,94.16-3.474c3.421,1.784,6.796,3.883,9.209,6.958c3.261,4.156,4.416,9.612,5.446,14.855
		c3.083,15.686,5.935,31.675,4.488,47.611c-0.848,9.346-3.444,19.027-9.942,25.588s-17.707,8.761-24.749,2.828
		c10.412-18.423,14.587-40.526,11.642-61.64c-0.34-2.44-0.794-4.929-2.026-7.04c-2.775-4.756-8.661-6.372-14.009-6.942
		c-20.886-2.224-41.7,5.188-60.291,15.268c-2.794,1.515-5.666,3.194-7.406,5.913c-1.501,2.346-1.99,5.208-2.445,7.98
		c-2.689,16.363-4.628,35.455,6.517,47.41c0.563,0.604-16.972,3.899-19.093,3.641c-4.733-0.576-13.127-2.586-16.408-6.595
		C536.44,145.441,538.352,119.304,539.315,107.218z"/>
	<path fill="#C4464D" d="M1062.96,1044.854c-0.775,22.448-3.246,47.77-20.832,61.739c-11.757,9.335-27.567,11.208-42.489,12.742
		c-74.852,7.655-149.914,15.31-225.025,21.059c-118.616,9.076-237.395,13.404-355.85,5.41c-3.747-0.259-7.493-0.516-11.256-0.792
		c-6.54-0.484-13.097-1.017-19.654-1.583c-33.866-2.907-71.413-8.882-92.277-35.723c-12.371-15.891-16.553-36.497-20.042-56.329
		c-19.024-108.136-27.873-218.048-26.404-327.815c0.726-54.746,4.021-109.396,7.315-164.045c1.631-27.244,3.278-54.488,4.926-81.732
		c5.038-83.864,10.932-170.763,50.902-244.662c1.018-1.874,2.051-3.747,3.117-5.604c0.242-0.404,0.468-0.807,0.695-1.195
		c1.179-2.035,2.39-4.037,3.634-6.04c15.325-24.643,35.529-46.607,61.787-58.444c19.605-8.85,41.342-11.514,62.724-13.792
		c120.878-12.822,242.805-15.81,364.184-8.947C935.8,145.288,976.222,248.32,985.556,331.683c2.81,25.096,1.438,51.419,11.918,74.4
		c8.689,19.072,24.741,33.865,34.641,52.34c12.451,23.239,14.325,50.482,15.94,76.806
		C1058.47,704.927,1068.886,874.931,1062.96,1044.854z"/>
	<path fill="#F2A661" d="M1060.989,995.404c-12.241,7.251-26.969,8.56-41.148,9.69c-75.288,6.008-150.576,11.951-225.881,17.813
		c-26.517,2.051-58.089,6.751-89.128,7.138c-34.365,0.436-68.069-4.376-93.488-23.82c-15.342-12.306-26.695-29.069-34.69-47.059
		c-18.555-41.763-19.072-88.272-20.041-133.151c-1.001-46.204-7.848-90-15.164-135.477c-2.309-14.373-4.618-29.117-1.615-43.361
		c5.2-24.74,25.274-34.478,48.739-36.239c0.84-0.065,1.68-0.129,2.519-0.177c79.971-5.959,160.508-10.045,240.899-9.528
		c5.474,0.032,10.965,0.08,16.44,0.162c36.256,0.468,72.511,1.76,108.701,3.891c35.077,2.051,83.912-6.298,99.221,33.963
		c23.239,61.092,37.354,125.609,42.005,190.804C1101.928,880.195,1112.796,964.737,1060.989,995.404z"/>
	<path fill="#683E48" d="M492.582,1083.37c-2.487,19.848-6.46,40.503-17.2,57.023c-22.609,1.728-45.25,3.294-67.875,4.618
		c-6.54-0.484-13.097-1.017-19.654-1.583c-33.866-2.907-71.413-8.882-92.277-35.723c-12.371-15.891-16.553-36.497-20.042-56.329
		c-19.024-108.136-27.873-218.048-26.404-327.815c0.726-54.746,4.021-109.396,7.315-164.045c1.631-27.244,3.278-54.488,4.926-81.732
		c5.038-83.864,10.932-170.763,50.902-244.662c1.018-1.874,2.051-3.747,3.117-5.604c9.787,0.516,19.589,1.05,29.376,1.598
		c38.307,2.197,80.731,6.686,106.343,35.254c23.142,25.807,25.5,63.564,26.663,98.204c6.072,180.453,12.144,360.922,18.216,541.374
		C497.991,963.8,499.994,1023.941,492.582,1083.37z"/>
	<g>
		<path fill="none" stroke="#E8FDEA" stroke-width="0.9957" stroke-miterlimit="10" d="M896.761,532.482"/>
	</g>
	<path fill="#F2A661" d="M1027.14,467.515c-5.378,2.1-11.466,2.148-17.344,2.18c-102.129,0.371-204.241,0.759-306.353,1.147
		c-32.202,0.113-74.384,6.056-109.815,3.23c-8.85-0.71-17.296-1.954-25.048-3.988c-34.156-8.947-24.498-47.044,0.63-62.03
		c4.587-2.746,9.448-4.926,14.534-6.654c19.444-6.686,41.924-6.879,63.224-6.782c96.751,0.452,193.517,0.904,290.268,1.372
		c19.395,0.081,39.13,0.226,57.669,5.217c18.539,4.973,36.062,15.632,43.474,31.297
		C1044.259,444.906,1041.191,462.073,1027.14,467.515z"/>
	<path fill="#C15C44" d="M240.282,655.068c-11.239,8.482-18.121,21.416-24.089,34.169c-38.46,82.18-53.369,175.223-42.512,265.305
		c0.909,7.542,2.086,15.323,6.157,21.736c3.675,5.791,9.4,9.957,15.244,13.548c40.375,24.81,90.042,27.714,137.405,29.268
		c11.828,0.388,24.634,0.449,34.2-6.517c9.388-6.836,13.34-18.825,15.656-30.206c5.375-26.421,4.906-53.637,4.415-80.595
		c-1.198-65.738-2.396-131.477-3.593-197.215c-0.589-32.319-12.326-54.728-45.479-57.584
		C307.873,644.409,266.074,635.603,240.282,655.068z"/>
	<path fill="#C15C44" d="M704.832,1030.045c-34.365,0.436-68.069-4.376-93.488-23.82c-15.342-12.306-26.695-29.069-34.69-47.059
		c-18.555-41.763-19.072-88.272-20.041-133.151c-1.001-46.204-7.848-90-15.164-135.477c-2.309-14.373-4.618-29.117-1.615-43.361
		c5.2-24.74,25.274-34.478,48.739-36.239c0.84-0.065,1.68-0.129,2.519-0.177c1.889,2.761,3.552,6.04,5.006,9.884
		c10.788,28.713,4.667,72.64,6.315,103.162c1.971,36.788,4.667,73.609,10.771,109.961c11.127,66.245,34.56,132.36,79.842,181.971
		C697.064,1020.145,701.425,1024.941,704.832,1030.045z"/>
	<path fill="#C15C44" d="M593.628,474.072c-8.85-0.71-17.296-1.954-25.048-3.988c-34.156-8.947-24.498-47.044,0.63-62.03
		c4.587-2.746,9.448-4.926,14.534-6.654c-1.421,2.875-2.745,5.652-3.31,8.156c-2.083,9.254-1.857,19.072,1.147,28.115
		c2.616,7.93,7.057,15.132,9.802,23.013C592.868,464.932,593.789,469.583,593.628,474.072z"/>
	<g>
		<path fill="#31353E" d="M864.057,170.29c-0.106,2.04-7.083,3.63-21.454,4.577c-7.188,0.525-16.223,0.82-27.18,1.085
			c-10.956,0.224-23.832,0.344-38.7,0.397c-14.862,0.003-31.723,0.007-50.653,0.011c-18.924,0.045-39.916,0.095-63.047,0.15
			c-23.131,0.132-48.401,0.411-75.882,0.975c-13.738,0.302-28.036,0.652-42.881,1.101c-14.84,0.453-30.161,1.055-45.951,2.191
			c-31.529,2.281-60.525,6.95-86.04,15.113c-12.605,4.076-23.821,9.419-32.195,17.378c-4.146,4.012-7.95,8.306-10.883,13.14
			c-1.63,2.3-2.831,4.862-4.188,7.289c-0.666,1.222-1.164,2.536-1.753,3.789c-0.54,1.279-1.196,2.493-1.632,3.81
			c-4.012,10.291-6.384,20.834-7.985,31.016c-1.59,10.2-2.41,20.077-3.001,29.485c-1,18.947-1.89,35.824-2.675,50.699
			c-1.607,29.774-2.782,51.539-3.555,65.864c-0.419,7.16-0.758,12.459-1.034,15.966c-0.276,3.508-0.489,5.224-0.656,5.219
			c-0.167-0.005-0.281-1.73-0.356-5.248c-0.075-3.517-0.11-8.827-0.118-16c0.048-14.345,0.121-36.142,0.221-65.959
			c0.091-14.92,0.195-31.846,0.312-50.85c0.162-9.555,0.534-19.689,1.711-30.388c1.197-10.685,3.175-21.981,7.098-33.518
			c0.422-1.459,1.083-2.862,1.624-4.309c0.594-1.43,1.093-2.905,1.782-4.324c1.404-2.824,2.657-5.763,4.411-8.519
			c3.149-5.693,7.382-10.997,12.144-15.973c2.523-2.349,5.006-4.836,7.866-6.926c2.813-2.134,5.784-4.081,8.861-5.856
			c6.158-3.554,12.722-6.42,19.431-8.903c26.693-9.733,56.743-15.673,89.057-19.114c16.156-1.711,31.723-2.815,46.652-3.707
			c14.926-0.888,29.282-1.62,43.096-2.244c27.625-1.21,53.05-1.891,76.327-2.168c23.277-0.28,44.405-0.168,63.445,0.183
			c19.04,0.408,35.993,0.991,50.924,1.824c14.931,0.797,27.842,1.76,38.802,2.815c10.962,1.014,19.971,2.195,27.11,3.299
			C857.384,165.972,864.163,168.257,864.057,170.29z"/>
	</g>
	<g>
		<path fill="#E8E5DE" d="M1073.642,785.924c0.076,0.326-3.882,1.533-12.218,3.687c-4.172,1.061-9.424,2.425-15.838,3.912
			c-6.44,1.38-14.014,3.004-22.765,4.88c-8.775,1.765-18.778,3.524-29.995,5.582c-5.633,0.885-11.574,1.819-17.827,2.803
			c-3.129,0.484-6.335,0.98-9.621,1.488c-3.296,0.434-6.672,0.877-10.127,1.332c-27.627,3.727-60.531,7.151-99.039,8.888
			c-38.508,1.74-71.587,1.296-99.437,0.074c-3.482-0.141-6.884-0.279-10.206-0.414c-3.318-0.21-6.557-0.415-9.716-0.615
			c-6.317-0.415-12.318-0.81-18.007-1.184c-11.357-1.039-21.478-1.89-30.376-2.857c-8.885-1.079-16.575-2.014-23.113-2.808
			c-6.522-0.903-11.876-1.788-16.126-2.469c-8.497-1.393-12.548-2.24-12.501-2.571c0.047-0.331,4.187-0.116,12.745,0.701
			c4.275,0.435,9.659,0.983,16.196,1.648c6.542,0.591,14.237,1.286,23.128,2.089c8.893,0.746,18.999,1.397,30.33,2.259
			c5.675,0.297,11.659,0.609,17.96,0.938c3.15,0.165,6.378,0.333,9.686,0.506c3.311,0.103,6.702,0.208,10.172,0.316
			c27.756,0.973,60.696,1.28,99.047-0.453c38.352-1.73,71.13-5.004,98.685-8.475c3.447-0.42,6.814-0.83,10.103-1.231
			c3.279-0.47,6.479-0.929,9.601-1.377c6.245-0.896,12.177-1.747,17.802-2.553c11.207-1.88,21.213-3.438,30.003-4.983
			c8.782-1.601,16.383-2.986,22.846-4.164c6.45-1.252,11.763-2.282,15.981-3.101
			C1069.462,786.185,1073.565,785.598,1073.642,785.924z"/>
	</g>
	<g>
		<path fill="#E8E5DE" d="M893.651,771.707c-0.033-0.313,0.747-0.769,2.528-1.019c1.763-0.229,4.59-0.229,8.194,1.058
			c1.782,0.663,3.756,1.651,5.691,3.195c0.936,0.765,2.131,1.703,2.885,3.549c0.358,0.935,0.454,2.04,0.216,3.109
			c-0.24,1.077-0.809,2.006-1.441,2.718c-1.291,1.424-2.787,2.244-4.317,2.944c-1.548,0.656-2.898,1.16-4.471,1.764
			c-3.076,1.163-6.482,2.336-10.292,3.284c-3.808,0.948-7.522,1.43-11.003,1.411c-3.49-0.002-6.713-0.635-9.542-1.604
			c-1.44-0.519-2.887-1.203-4.123-2.305c-1.245-1.071-2.137-2.668-2.383-4.176c-0.485-3.069,0.688-5.417,1.941-7.066
			c1.362-1.69,2.849-2.541,4.108-3.173c1.27-0.602,2.341-0.923,3.194-1.131c1.707-0.398,2.572-0.364,2.694-0.059
			c0.126,0.316-0.542,0.891-1.956,1.795c-0.7,0.457-1.582,1.002-2.539,1.719c-0.928,0.712-2.003,1.65-2.703,2.828
			c-0.715,1.185-1.199,2.867-0.808,4.258c0.194,0.685,0.551,1.244,1.219,1.766c0.658,0.521,1.624,0.96,2.769,1.31
			c4.762,1.487,10.925,1.497,17.978-0.278c3.531-0.879,6.79-1.961,9.815-3.037c1.472-0.529,3.058-1.087,4.28-1.56
			c1.203-0.484,2.261-1.101,2.837-1.695c0.569-0.612,0.593-0.898,0.514-1.39c-0.127-0.507-0.729-1.26-1.481-1.925
			c-1.466-1.375-3.015-2.359-4.443-3.107c-2.891-1.465-5.3-1.977-6.89-2.317C894.521,772.245,893.685,772.057,893.651,771.707z"/>
	</g>
	<g>
		<path fill="#E8E5DE" d="M1032.498,437.8c-0.015,0.334-4.076,0.483-12.513,0.421c-8.436-0.087-21.25-0.316-38.773-0.707
			c-8.762-0.181-18.701-0.387-29.86-0.618c-11.16-0.186-23.539-0.392-37.179-0.62c-27.281-0.408-59.609-0.742-97.316-0.675
			c-37.707,0.066-70.034,0.514-97.313,1.019c-13.64,0.276-26.018,0.526-37.177,0.752c-11.158,0.27-21.097,0.511-29.858,0.723
			c-17.522,0.453-30.335,0.727-38.77,0.844c-8.437,0.092-12.498-0.043-12.514-0.377c-0.016-0.334,4.015-0.836,12.429-1.507
			c8.412-0.696,21.211-1.492,38.729-2.384c8.762-0.386,18.702-0.824,29.862-1.315c11.164-0.375,23.547-0.873,37.199-1.199
			c27.3-0.75,59.659-1.334,97.406-1.401c37.747-0.067,70.108,0.403,97.41,1.056c13.652,0.278,26.037,0.733,37.203,1.068
			c11.162,0.452,21.103,0.855,29.867,1.21c17.521,0.83,30.322,1.581,38.737,2.247C1028.48,436.979,1032.513,437.466,1032.498,437.8z
			"/>
	</g>
	<g>
		<path fill="#E8E5DE" d="M499.023,377.244c-0.07-0.152,0.859-0.74,2.846-1.786c2.01-0.986,5.09-2.422,9.424-3.911
			c4.322-1.514,9.884-3.11,16.737-4.525c6.847-1.446,14.983-2.665,24.361-3.86c18.746-2.379,42.558-5.245,71.88-7.888
			c29.316-2.636,64.188-4.827,104.878-5.392c20.344-0.317,39.239-0.234,56.719,0.069c17.482,0.261,33.548,0.771,48.251,1.297
			c29.402,1.111,53.341,2.439,72.196,3.582c18.854,1.169,32.627,2.164,41.683,2.938c9.056,0.775,13.395,1.326,13.378,1.66
			c-0.018,0.334-4.392,0.419-13.478,0.223c-9.086-0.194-22.885-0.668-41.753-1.399c-18.868-0.705-42.805-1.677-72.173-2.542
			c-14.685-0.402-30.727-0.816-48.172-1.012c-17.444-0.238-36.292-0.287-56.578,0.029c-40.578,0.563-75.305,2.61-104.571,4.995
			c-29.267,2.392-53.089,4.903-71.862,6.843c-9.38,0.974-17.454,1.943-24.254,3.118c-6.806,1.145-12.337,2.448-16.677,3.663
			C503.174,375.791,499.193,377.626,499.023,377.244z"/>
	</g>
	<g>
		<path fill="#E8E5DE" d="M868.108,560.997c-0.056,0.683-2.982,1.01-9.228,1.057c-6.24-0.034-15.812-0.085-29.207-0.157
			c-13.394,0.139-22.966,0.238-29.206,0.302c-6.246-0.015-9.173-0.328-9.233-1.011c-0.057-0.65,2.769-1.544,9.005-2.407
			c6.233-0.846,15.887-1.676,29.422-1.729c13.535-0.014,23.193,0.768,29.43,1.583C865.332,559.467,868.162,560.347,868.108,560.997z
			"/>
	</g>
	<g>
		<path fill="#31353E" d="M369.398,772.196c0.642,1.935-0.29,4.255-3.074,6.823c-1.394,1.274-3.239,2.653-5.595,4.002
			c-2.37,1.298-5.234,2.625-8.611,3.967c-3.389,1.29-7.327,2.448-11.776,3.654c-2.242,0.515-4.617,1.022-7.124,1.521
			c-1.255,0.239-2.542,0.483-3.861,0.734c-1.328,0.188-2.689,0.382-4.082,0.579c-5.565,0.839-11.701,1.312-18.364,1.673
			c-3.335,0.061-6.805,0.125-10.41,0.192c-3.599-0.105-7.334-0.215-11.207-0.328c-3.856-0.292-7.574-0.573-11.157-0.844
			c-3.56-0.425-6.986-0.835-10.279-1.228c-6.556-0.999-12.545-1.991-17.97-3.203c-1.356-0.284-2.681-0.561-3.975-0.832
			c-1.284-0.318-2.538-0.629-3.76-0.932c-2.435-0.614-4.748-1.198-6.942-1.751c-4.345-1.286-8.206-2.376-11.572-3.463
			c-3.34-1.145-6.232-2.137-8.691-2.98c-2.434-0.902-4.412-1.724-5.982-2.362c-3.134-1.298-4.596-2.03-4.502-2.35
			c0.094-0.32,1.739-0.204,5.075,0.263c1.662,0.248,3.751,0.56,6.287,0.938c2.539,0.316,5.524,0.687,8.973,1.115
			c3.447,0.382,7.374,0.679,11.744,1.085c2.195,0.117,4.51,0.241,6.947,0.371c1.214,0.065,2.458,0.13,3.733,0.198
			c1.278,0.023,2.586,0.047,3.925,0.072c5.342,0.181,11.178,0.078,17.484-0.037c3.148-0.143,6.423-0.291,9.827-0.445
			c3.386-0.257,6.899-0.523,10.543-0.799c3.622-0.384,7.114-0.754,10.479-1.111c3.345-0.442,6.563-0.866,9.657-1.274
			c6.162-0.959,11.814-1.775,16.962-2.695c1.291-0.202,2.552-0.4,3.783-0.592c1.226-0.222,2.423-0.439,3.59-0.65
			c2.337-0.411,4.564-0.767,6.685-1.071c4.203-0.782,8.003-1.275,11.372-1.684c3.356-0.462,6.319-0.696,8.904-0.726
			c2.569-0.08,4.741-0.016,6.555,0.286C366.611,768.895,368.756,770.261,369.398,772.196z"/>
	</g>
</g>
</svg>
